<svg xmlns="http://www.w3.org/2000/svg" xmlns:xlink="http://www.w3.org/1999/xlink" fill="none" version="1.1" width="1029" height="1029" viewBox="0 0 1029 1029"><defs><clipPath id="master_svg0_2_9"><rect x="0" y="0" width="1029" height="1029" rx="514.5"/></clipPath><filter id="master_svg1_4_193" filterUnits="objectBoundingBox" color-interpolation-filters="sRGB" x="-0.1143142833875174" y="-0.11082524830937877" width="1.2286285667750347" height="1.25331485327858"><feFlood flood-opacity="0" result="BackgroundImageFix"/><feColorMatrix in="SourceAlpha" type="matrix" values="0 0 0 0 0 0 0 0 0 0 0 0 0 0 0 0 0 0 127 0"/><feOffset dy="8" dx="0"/><feGaussianBlur stdDeviation="16"/><feColorMatrix type="matrix" values="0 0 0 0 0 0 0 0 0 0 0 0 0 0 0 0 0 0 0.1599999964237213 0"/><feBlend mode="normal" in2="BackgroundImageFix" result="effect1_dropShadow"/><feBlend mode="normal" in="SourceGraphic" in2="effect1_dropShadow" result="shape"/></filter><filter id="master_svg2_4_196" filterUnits="objectBoundingBox" color-interpolation-filters="sRGB" x="-0.11456804367801775" y="-0.1066382268307815" width="1.2291360873560355" height="1.2437445184703577"><feFlood flood-opacity="0" result="BackgroundImageFix"/><feColorMatrix in="SourceAlpha" type="matrix" values="0 0 0 0 0 0 0 0 0 0 0 0 0 0 0 0 0 0 127 0"/><feOffset dy="8" dx="0"/><feGaussianBlur stdDeviation="16"/><feColorMatrix type="matrix" values="0 0 0 0 0 0 0 0 0 0 0 0 0 0 0 0 0 0 0.1599999964237213 0"/><feBlend mode="normal" in2="BackgroundImageFix" result="effect1_dropShadow"/><feBlend mode="normal" in="SourceGraphic" in2="effect1_dropShadow" result="shape"/></filter></defs><g clip-path="url(#master_svg0_2_9)"><rect x="0" y="0" width="1029" height="1029" rx="514.5" fill="#8B8B8B" fill-opacity="1"/><g><g filter="url(#master_svg1_4_193)"><path d="M652.6199909863282,443.6000061171875Q654.4800109863281,441.7399902371875,656.0300009863281,441.4299926771875Q657.5800209863281,441.1199951171875,659.4400009863282,441.1199951171875Q663.7800009863281,441.1199951171875,671.840000986328,443.6000061171875Q680.5200209863281,445.4599914171875,692.9200109863282,448.8699951171875Q705.320010986328,452.2799991171875,718.340000986328,456.6199951171875Q745.619990986328,465.2999881171875,761.119990986328,473.3600161171875Q767.9400009863282,475.8399961171875,767.9400009863282,478.3200071171875Q767.9400009863282,480.1799931171875,762.9800109863281,485.1400151171875Q759.8800009863281,488.2399901171875,756.7800009863281,491.9599911171875Q753.6800209863281,495.6799931171875,749.9600209863281,499.3999941171875Q742.5200209863281,507.4599911171875,735.3900109863282,515.5199891171875Q728.2600109863281,523.5800171171875,724.5400109863281,528.5400081171875L766.0800209863281,528.5400081171875Q771.6600009863281,528.5400081171875,778.7900109863281,528.5400081171875Q785.9200109863282,528.5400081171875,794.6000109863281,529.1600041171876Q803.2800009863281,529.1600041171876,811.0300009863281,528.5400081171875Q818.7800009863281,527.9200131171875,825.6000109863281,526.0599971171875Q827.4600209863281,524.2000121171875,829.0100109863281,522.0299991171875Q830.5600009863281,519.8600161171875,832.4200109863282,516.7600101171874Q836.1400109863282,510.5599971171875,839.5500209863281,505.2900081171875Q842.9600209863281,500.0199891171875,846.6800209863281,495.6799931171875Q849.1600009863281,491.3399961171875,853.5000009863281,491.3399961171875Q855.9800109863281,491.3399961171875,865.2800009863281,495.0599971171875Q873.9600209863281,498.7799991171875,884.5000009863281,504.9800111171875Q895.0400409863281,511.1799931171875,907.4400009863282,518.0000001171875Q932.2400209863281,533.5000001171875,945.8800309863282,545.8999951171875Q952.7000409863281,553.9599951171875,952.7000409863281,557.0599951171876Q952.7000409863281,560.7799951171875,948.9800709863281,562.9500151171875Q945.2600409863281,565.1199951171875,940.3000209863281,566.9800151171875L930.3800309863282,570.7000151171875Q927.9000509863281,571.9400051171875,926.0400709863281,573.1799951171874Q924.1800209863281,574.4200151171875,922.9400309863281,576.2799951171875Q921.0800509863282,588.6799951171874,920.1500509863281,601.3900151171874Q919.2200609863281,614.1000051171875,918.6000709863281,627.1199951171875Q917.980040986328,653.1600051171874,917.6699809863281,678.5799851171876Q917.3599809863281,703.9999951171875,914.8800009863281,729.4200151171875Q911.7800309863281,754.8399951171875,903.7200309863281,779.0199851171875Q903.7200309863281,780.8800051171875,902.1699809863281,784.9100051171874Q900.619990986328,788.9400051171875,899.3800009863281,792.0400051171875Q894.4199809863281,801.9599951171874,883.8800009863281,809.7099951171874Q873.340000986328,817.4599951171874,862.8000209863281,822.4200151171875Q850.4000209863282,829.2400251171875,837.3800009863281,834.8199751171875Q824.3600109863281,840.3999951171875,811.9600209863281,840.3999951171875L804.5200209863281,840.3999951171875Q802.6600009863281,818.6999851171875,798.9400009863282,806.9200151171875Q795.2200009863282,795.1400151171874,787.7800009863281,788.3200051171875Q780.340000986328,782.1199951171875,766.3900109863282,780.5700051171875Q752.4400009863282,779.0199851171875,728.8800009863281,779.0199851171875L728.8800009863281,780.8800051171875L726.4000209863282,779.0199851171875L726.4000209863282,748.6399851171875L699.119990986328,748.6399851171875Q697.2600109863281,764.7600051171876,696.9500109863282,774.9900251171875Q696.6400109863282,785.2200051171875,696.6400109863282,798.2400251171875Q696.6400109863282,810.6399851171875,696.9500109863282,821.8000151171875Q697.2600109863281,832.9599951171874,699.119990986328,844.1200251171874Q699.7400209863281,850.9400351171876,705.9400009863282,854.6600051171874Q712.1400109863282,858.3800351171875,719.5800209863281,859.6200251171874Q727.6400109863282,861.4800151171876,735.0800209863281,861.7900051171875Q742.5200209863281,862.1000051171875,747.4800109863281,862.1000051171875L855.3600109863281,862.1000051171875Q862.8000209863281,862.1000051171875,871.4800109863281,859.9300251171875Q880.1600009863281,857.7599751171874,883.2600109863281,850.9400351171876L924.8000209863281,765.9999951171875Q927.2800609863282,764.1399851171875,931.6200209863281,764.1399851171875Q935.3400609863281,764.1399851171875,937.5100409863281,764.7600051171876Q939.6800209863281,765.3800051171875,940.9200109863282,768.4800151171876L940.9200109863282,780.8800051171875Q940.9200109863282,788.3200051171875,940.6100109863281,795.7600051171876Q940.3000209863281,803.2000151171875,939.0600309863281,810.0199851171875Q937.8200409863281,817.4599951171874,937.2000409863281,825.2099951171874Q936.5800509863282,832.9599951171874,936.5800509863282,840.3999951171875Q936.5800509863282,850.9400351171876,941.2300709863281,858.0699751171875Q945.8800309863282,865.1999851171875,952.0800509863282,872.0199851171875Q957.0400709863281,878.8399951171875,961.6900309863281,885.6600051171874Q966.3400609863281,892.4800151171876,966.3400609863281,901.1600051171874Q966.3400609863281,912.9400351171876,957.9700609863281,919.7599751171874Q949.6000709863281,926.5799851171876,937.2000409863281,930.9200151171875Q924.8000209863281,935.2599751171874,911.1600309863281,937.1200251171874Q897.5200209863281,938.9800151171876,888.2200009863282,939.6000051171875L735.7000109863282,939.6000051171875Q735.0800209863281,939.6000051171875,733.5300009863281,939.6000051171875Q731.9800109863281,939.6000051171875,730.119990986328,938.9800151171876Q727.0200209863281,938.9800151171876,724.2300109863281,938.9800151171876Q721.4400009863282,938.9800151171876,718.340000986328,938.3600151171875L707.1800209863281,937.1200251171874L701.6000109863281,937.1200251171874Q692.9200109863282,936.5000351171875,682.070010986328,935.2599751171874Q671.2200009863282,934.0199851171875,660.6800209863281,930.9200151171875Q650.1400109863281,928.4400351171876,640.8400009863282,925.3399951171875Q631.5400109863281,922.2400251171875,627.8200109863282,915.4200151171875Q619.1400109863281,903.0199851171875,614.4900009863281,892.1700151171875Q609.8400109863281,881.3199751171875,606.1200109863281,865.8199751171875L606.1200109863281,831.1000051171875Q606.1200109863281,812.5000351171875,606.4300109863282,793.5899951171875Q606.7400009863281,774.6800251171875,607.3600109863281,756.0799851171876Q607.9800109863281,736.8600151171875,608.2900109863281,718.2600051171876Q608.6000109863281,699.6600051171874,608.6000109863281,680.4400051171875Q608.6000109863281,677.3399951171875,608.2900109863281,674.2400251171875Q607.9800109863281,671.1399851171875,606.1200109863281,668.0400051171875Q599.3000009863281,674.8600151171875,589.6900009863282,680.1300051171875Q580.0800009863281,685.3999951171875,569.5400109863281,685.3999951171875L569.5400109863281,669.8999951171875Q577.6000109863281,652.5400051171875,583.8000009863281,638.2799951171875Q590.0000109863281,624.0199851171875,595.5800009863281,609.1400151171874L606.1200109863281,584.9599951171875Q622.2400009863281,550.2399951171875,633.0900109863281,515.2099911171875Q643.9400009863282,480.1799931171875,652.6199909863282,443.6000061171875ZM537.3000009863281,655.0199851171875L539.7800109863281,649.4400051171875L543.5000109863281,640.7600051171875Q544.7400009863281,635.8000151171875,546.2900109863281,632.0800151171875Q547.8400109863281,628.3600151171875,549.0800009863281,626.4999951171875L552.1800109863282,619.0599951171876Q553.4200109863282,617.8200051171875,555.9000109863281,617.8200051171875Q569.5400109863281,617.8200051171875,569.5400109863281,633.3200051171875Q569.5400109863281,641.9999951171875,567.6800109863282,650.0599951171876Q565.8200109863282,658.1200251171875,562.7200009863282,666.8000151171875Q559.6200109863281,675.4800151171875,558.0700109863282,683.8500051171875Q556.5200009863281,692.2200051171875,557.7600109863281,700.8999951171875L544.1200109863281,764.1399851171875L544.1200109863281,765.9999951171875Q541.0200009863281,793.8999951171875,540.4000109863281,819.6300351171875Q539.7800109863281,845.3600151171875,539.7800109863281,875.1200251171874L538.5400109863281,888.7599751171874Q537.9200109863282,893.7200051171875,537.6100109863281,897.7500351171875Q537.3000009863281,901.7799951171876,537.3000009863281,903.6399851171875Q537.3000009863281,906.7400251171875,535.1300009863281,913.8700251171874Q532.9600109863281,921.0000351171875,529.8600109863281,927.8199751171875Q526.1400109863281,934.6399851171875,522.1100109863281,940.5299951171876Q518.0800009863282,946.4200151171875,514.3600109863281,946.4200151171875Q506.9200109863281,946.4200151171875,490.49000598632813,936.8100251171875Q474.0600129863281,927.1999851171875,457.94001398632815,914.1800251171875Q441.82001098632816,901.7799951171876,429.7300109863281,888.1399851171875Q417.64001098632815,874.5000351171875,417.64001098632815,865.8199751171875L423.22001298632813,862.1000051171875Q429.4200099863281,859.0000351171875,436.2400129863281,854.0400051171875Q443.0600129863281,849.0799851171876,448.6400109863281,840.3999951171875Q454.84001498632813,832.3399951171875,454.84001498632813,819.9399751171875Q454.84001498632813,814.3600151171875,448.6400109863281,808.7799951171876Q443.0600129863281,805.0600251171875,443.0600129863281,796.3800051171875Q446.1600149863281,796.3800051171875,453.9100149863281,794.8299851171876Q461.6600149863281,793.2799951171876,463.5200079863281,790.1800251171875L537.3000009863281,655.0199851171875ZM406.4800109863281,596.1199951171875Q406.4800109863281,591.1600051171874,407.72001078632815,588.6799951171874Q408.96001048632814,586.2000151171875,412.6800117863281,583.1000051171875L421.9800109863281,583.1000051171875Q426.3200109863281,583.1000051171875,430.35000998632813,583.7200051171875Q434.3800129863281,584.3399951171875,439.34001198632814,585.5800151171875Q448.6400109863281,588.6799951171874,456.7000079863281,586.8200051171875Q457.94001398632815,588.0599951171876,463.5200079863281,589.9200151171875Q467.2400089863281,590.5400051171875,474.0600129863281,593.6400151171874Q479.64001498632814,595.4999951171875,484.60000598632814,597.6700151171875Q489.5600129863281,599.8399951171875,491.4200129863281,600.4599951171875L502.58001698632813,606.0400051171875Q508.1600009863281,609.1400151171874,513.7400009863281,613.4800151171875Q519.3200109863282,617.8200051171875,522.4200109863282,622.7799951171875Q526.1400109863281,628.3600151171875,526.1400109863281,635.1799951171874Q526.1400109863281,643.8600151171875,522.1100109863281,651.9200151171875Q518.0800009863282,659.9800151171875,513.1200109863281,668.0400051171875Q507.5400109863281,676.1000051171875,500.7200159863281,683.5400051171875Q493.90000898632815,690.9800151171875,488.94001798632814,696.5599951171876L483.9800109863281,698.4200151171875Q482.1200099863281,698.4200151171875,478.71000698632815,695.9400051171875Q475.30001798632816,693.4599951171875,472.20001198632815,690.3600151171875Q469.10000998632813,686.6399851171875,466.6200139863281,683.5400051171875Q464.1400109863281,680.4400051171875,463.5200079863281,679.1999851171875Q461.6600149863281,675.4800151171875,456.7000079863281,668.0400051171875Q451.7400089863281,660.6000051171875,446.1600149863281,651.9200151171875Q440.58001298632814,643.8600151171875,435.9300119863281,636.7300151171875Q431.28000998632814,629.6000051171875,429.4200099863281,626.4999951171875L426.9400099863281,624.0199851171875L421.9800109863281,617.8200051171875Q420.1200099863281,615.9599951171875,419.5000109863281,613.4800151171875Q418.2600099863281,612.2399951171875,417.02001198632814,610.6900051171875Q415.7800101863281,609.1400151171874,414.5400123863281,607.2799951171875Q411.4400119863281,604.1799951171874,409.2700118863281,601.7000151171875Q407.1000118263281,599.2200051171875,406.4800109863281,597.9800151171875L406.4800109863281,596.1199951171875ZM678.0400109863281,602.3200051171875Q682.3800009863281,606.6600051171874,684.8600109863281,607.8999951171875Q689.820010986328,611.6199951171875,692.3000209863281,612.8600151171875L724.5400109863281,612.8600151171875Q728.8800009863281,612.8600151171875,731.6700109863282,608.5199851171875Q734.4600209863281,604.1799951171874,737.5600009863281,599.2200051171875Q740.6600009863281,594.2600051171875,742.8300209863281,589.6100151171875Q745.0000009863281,584.9599951171875,749.9600209863281,584.9599951171875Q751.820010986328,585.5800151171875,754.9200109863282,587.1300051171875Q758.0200209863281,588.6799951171874,762.3600109863281,590.5400051171875Q766.7000109863282,591.7799951171875,768.5600009863281,593.6400151171874L779.1000109863281,599.2200051171875Q780.340000986328,600.4599951171875,782.2000109863282,601.7000151171875Q784.0600009863281,602.9400051171875,786.5400109863281,604.1799951171874Q790.8800009863281,607.2799951171875,794.6000109863281,610.0700051171875Q798.320010986328,612.8600151171875,800.1800209863281,612.8600151171875L813.820010986328,622.7799951171875Q817.5400109863281,625.8800051171875,820.6400109863282,629.2900051171875Q823.7400209863281,632.7000151171875,823.7400209863281,635.1799951171874Q823.7400209863281,640.1400151171874,821.2600109863281,642.9299951171874Q818.7800009863281,645.7200051171875,815.6800209863281,648.2000151171875L810.1000109863281,653.1600051171874Q807.0000009863281,656.2600051171875,807.0000009863281,658.7400251171875L807.0000009863281,752.9800151171876L809.4800109863281,754.8399951171875Q816.3000209863281,754.8399951171875,820.0200209863281,748.6399851171875Q823.7400209863281,742.4400051171875,823.7400209863281,737.4800151171876Q823.7400209863281,736.2400251171875,823.7400209863281,734.6900051171875Q823.7400209863281,733.1399851171875,824.3600109863281,730.0400051171875L826.2200009863282,715.7799951171876Q827.4600209863281,708.3399951171875,827.7700209863281,701.5199851171875Q828.0800209863281,694.6999851171875,828.0800209863281,689.7400251171875L828.0800209863281,682.9200151171875Q828.0800209863281,676.1000051171875,828.3900109863282,660.2900051171875Q828.7000109863282,644.4800151171875,829.320010986328,625.8800051171875Q829.320010986328,607.8999951171875,829.6300009863281,592.0899951171875Q829.9400009863282,576.2799951171875,829.9400009863282,569.4599951171875L828.0800209863281,567.6000051171875L784.0600009863281,567.6000051171875Q780.9600209863281,567.6000051171875,769.8000209863281,567.9100051171874Q758.6400109863282,568.2200051171875,746.2400209863281,568.2200051171875Q739.4200109863282,568.8399951171875,733.840000986328,568.8399951171875Q728.2600109863281,568.8399951171875,722.0600009863281,568.8399951171875Q716.4800109863281,569.4599951171875,712.7600109863281,569.4599951171875Q709.0400109863281,569.4599951171875,707.8000209863281,569.4599951171875Q702.2200009863282,569.4599951171875,698.1900009863282,573.1799951171874Q694.1600009863281,576.8999951171875,691.0600009863281,581.8600151171875Q686.7200009863282,586.8200051171875,684.2400209863281,592.3999951171875Q683.0000009863281,595.4999951171875,681.4500109863282,597.9800151171875Q679.9000209863282,600.4599951171875,678.0400109863281,602.3200051171875ZM699.119990986328,708.9599951171874L726.4000209863282,708.9599951171874L726.4000209863282,655.0199851171875L703.4600209863281,655.0199851171875L701.6000109863281,656.8800051171875L700.3600109863281,669.8999951171875Q699.7400209863281,675.4800151171875,699.4300209863281,681.0599951171876Q699.119990986328,686.6399851171875,699.119990986328,689.7400251171875L699.119990986328,708.9599951171874Z" fill="#FFFFFF" fill-opacity="1"/></g><g filter="url(#master_svg2_4_196)"><path d="M343,94.639984Q343,89.6799927,348.58002,85.3399963Q354.16,81,359.12003,81Q360.98001,81.61999512,364.08002,82.2399902Q367.18002,82.8599854,370.90002,83.4799805L403.76001,89.6799927L414.92001,92.160004Q422.36002,94.019989,433.21002,97.73999Q444.06003,101.459991,454.60001,107.039978Q465.14001,113.23999,472.27002,121.299988Q479.40002,129.359985,479.40002,138.039978Q479.40002,149.199982,470.10001,158.809998Q460.80002,168.419983,452.12003,174.61999500000002L452.12003,177.100006Q455.22,176.47998,460.18002,176.47998Q465.14001,176.47998,470.72,175.859985Q483.12003,175.859985,494.90002,175.23999Q506.68002,174.61999500000002,517.22,173.38000499999998Q527.76001,172.759979,531.17001,170.58999599999999Q534.58002,168.419983,540.1600000000001,164.699982Q542.0200199999999,162.83999599999999,544.5,160.97998Q546.98001,159.11999500000002,549.4599900000001,156.639984Q554.42001,152.29998799999998,558.76004,149.509979Q563.10001,146.720001,564.9599900000001,146.720001Q568.68002,146.720001,578.59998,153.53997800000002Q588.51996,160.359985,598.44,169.66000400000001Q608.35999,178.959991,615.48999,187.94997999999998Q622.62,196.94,622.62,201.28Q622.62,209.95999,613.32001,209.95999L495.52002,209.95999Q494.28003,209.95999,492.11002,209.95999Q489.94,209.95999,486.84003,210.57999Q480.02002,211.82001,471.65002,212.44Q463.28003,213.06,455.84003,213.67999Q452.74002,214.29999,450.57001,214.29999Q448.40002,214.29999,447.16,214.29999L444.68002,214.29999L447.16,216.78L455.84003,219.25998Q458.94,220.5,462.35001,222.04999Q465.76001,223.60001,468.86002,224.84Q472.58002,226.07999,475.68002,227.63Q478.78003,229.17999,481.88,230.41998L490.56003,234.13998Q494.28003,235.38,497.38,237.23999Q500.48001,239.10001,500.48001,242.19998Q501.10001,247.16,496.45001,250.57001Q491.80002,253.97998,486.22,257.07999Q480.02002,261.41998,475.06003,266.07001Q470.10001,270.72,470.10001,277.53998L493.04001,277.53998Q498.62003,277.53998,501.41,272.88998000000004Q504.20001,268.23999000000003,507.30002,261.41998Q510.40002,254.60001,513.5,249.32999Q516.60001,244.06,523.42001,242.19998Q528.38,244.06,536.75,248.70999Q545.12003,253.35999,555.6600000000001,259.56Q566.20004,266.38,577.35999,273.19998Q588.51996,280.01999,597.82001,286.84000000000003Q606.5,293.65999999999997,612.07996,299.85999000000004Q617.65997,306.06,617.65997,309.78Q617.65997,318.45999,610.83997,325.28L605.88,318.45999L603.39996,320.94L587.89996,320.94Q586.03998,320.94,583.25,324.65997Q580.45996,328.38,580.45996,329.62Q569.92001,367.44,555.0400099999999,401.84998Q540.1600000000001,436.26001,520.94,471.59998Q523.42001,475.32001,529.62003,478.72998Q535.82001,482.14001,543.88,485.23999Q551.94003,488.33997,561.55002,491.44Q571.1600000000001,494.53998,581.07996,497.64001Q602.15997,503.83997,580.45996,497.64001Q595.95996,503.84003,605.88,510.04016L605.88,512.5201400000001L587.89996,562.73999L585.41998,564.59998Q582.94,567.08002,582.94,568.94L577.35999,578.23999Q574.26004,585.67999,574.26004,586.29999Q573.01999,588.77997,573.01999,591.26001Q573.01999,596.83997,571.78,603.03998Q570.5400099999999,606.14001,569.30002,606.14001Q537.68002,594.35999,510.71002,578.23999Q483.74002,562.12,463.28003,539.17999L455.84003,539.17999Q447.16,547.8599899999999,433.52002,557.46997Q419.88,567.08002,403.76001,575.76001Q387.64001,584.44,372.14001,590.95001Q356.64001,597.46002,345.48001,597.46002Q342.38,597.46002,339.28,593.42999Q336.18002,589.40002,336.18002,586.29999Q318.81998999999996,596.21997,298.05,601.17999Q277.28,606.14001,258.06,606.14001L258.06,395.34Q251.23999,396.57999,245.34999,400.60999Q239.45999,404.64001,233.25999,409.59998Q227.67999,414.56,221.48,417.97Q215.28,421.38,207.22,421.38Q207.22,410.84,212.17999,399.67999Q217.14,388.51999,223.95999,377.97998Q230.78,366.20001,237.59999,356.89999Q244.42,346.35999,248.45,337.67999Q252.48,329,257.44,316.59997999999996Q259.91999999999996,309.78,262.39999,304.19998Q264.88,298.62,267.36,292.41998L276.03999,271.95999Q276.65999999999997,269.47998,277.28,267.92999Q277.89999,266.38,278.52,265.13998000000004Q279.14,263.89999,279.14,262.65999999999997L279.14,260.17999L292.15999,216.78L255.58,216.78L245.03999,201.28L238.22,190.12Q234.5,184.53998,234.5,183.91998L234.5,181.44Q272.31998999999996,179.57998700000002,311.99998,179.57998700000002Q331.84003,180.199982,351.06003,179.269989Q370.28,178.33999599999999,389.5,177.100006Q389.5,172.139984,385.78,162.83999599999999L380.20001,151.059998Q379.58002,149.819977,379.27002,147.959991Q378.96002,146.100006,377.72,144.23999L372.76001,135.559998L367.80002,128.73999Q366.56003,126.880005,366.56003,124.39999399999999L355.40002,110.759979Q352.30002,105.799988,348.58002,102.079987Q344.86002,98.359985,343,96.5L343,94.639984ZM211.56,257.69998L217.75999,252.12L223.95999,255.22Q225.81999,256.45999,225.81999,262.65999999999997Q225.81999,278.78,221.48,298.31Q217.14,317.84000000000003,214.03999,333.95999L210.94,345.73999Q209.08,354.41998,206.91,364.34Q204.73999,374.26001,203.5,382.94L200.39999,395.34L200.39999,397.20001Q194.81999,420.76001,191.41,440.91Q188,461.06,186.14,484.62L186.14,495.77997Q186.14,501.97998,186.45,508.17999Q186.75999000000002,514.38,187.37999000000002,519.96002Q188,526.1599699999999,188.31,532.04999Q188.62,537.94,188.62,542.90002Q188.62,559.0200199999999,185.20999,569.87Q181.8,580.71997,174.98000000000002,597.46002Q173.12,600.56,172.19,602.10999Q171.25999000000002,603.65997,168.16,603.65997Q151.41999800000002,600.56,139.33000199999998,593.73999Q127.240002,586.91998,116.700001,577Q106.16,567.08002,96.860001,556.84998Q87.560001,546.62,78.259998,534.83997Q74.540001,529.88,72.6800003,526.1599699999999Q70.8199997,522.44,70.8199997,517.4799800000001Q70.8199997,510.65997,73.9199982,509.10999Q77.02,507.56,81.360001,506.32001Q83.220001,505.70001,90.970001,492.98999Q98.720001,480.27997,107.710003,464.46997Q116.700001,448.66,124.14000300000001,435.01999Q131.58000199999998,421.38,133.440002,419.51999L211.56,257.69998ZM101.200001,116.339996Q103.060001,109.519989,107.710003,106.109985Q112.35999699999999,102.699982,117.320004,102.699982Q129.720001,102.699982,147.699997,106.419983Q165.67999,110.139984,183.66,117.579987Q201.02,124.39999399999999,213.42,134.940002Q225.81999,145.47998,225.81999,159.73999Q225.81999,170.279999,221.17,180.820007Q216.52,191.35998999999998,209.7,201.28Q202.25999,210.57999,192.64999,216.78Q183.03999,222.97998,172.5,222.97998Q167.53999,222.97998,165.06,219.25998Q162.58000199999998,215.53998,160.720001,212.44L157.61999500000002,205Q156.38000499999998,201.89999,155.449997,199.10998999999998Q154.520004,196.32001,153.279999,193.22L147.699997,181.44Q146.46000700000002,178.959991,145.83999599999999,177.41000400000001Q145.220001,175.859985,144.600006,174.61999500000002Q139.639999,165.320007,133.13000499999998,155.709991Q126.619999,146.100006,119.179996,138.039978Q117.939999,135.559998,115.460003,133.699982Q114.219997,132.459991,112.35999699999999,130.91000400000001Q110.50000399999999,129.359985,109.259998,128.11999500000002L103.679996,120.679993L101.200001,116.339996ZM345.48001,427.57999Q345.48001,430.67999,345.17001,438.12Q344.86002,445.56,344.24002,453.62Q343.62003,462.29999,343.31003,469.42999Q343,476.56,343,480.27997L343,575.1400100000001L345.48001,575.1400100000001L364.08002,559.0200199999999Q379.58002,544.1400100000001,392.29001,526.77997Q405,509.41998,416.78,491.44L416.78,486.47998Q416.78,484,413.68002,480.27997Q409.96002,474.70001,409.96002,473.45996Q409.34003,472.21997,408.10001,469.12Q406.86002,466.02002,405,460.44L396.32001,438.73999Q391.36002,426.95999,387.02002,416.72998Q382.68002,406.5,382.06003,403.39999L380.20001,399.67999Q379.58002,400.29999,378.96002,400.91998Q378.34003,401.53998,377.10001,402.78L370.90002,408.35999Q369.66,409.59998,368.11002,411.14999Q366.56003,412.70001,365.32001,413.94L361.60001,417.03998Q360.36002,418.28,354.16,421.38Q346.72,425.72,345.48001,427.57999ZM64,240.34Q64,233.51999,68.3400002,231.35001Q72.6800003,229.17999,78.259998,229.17999Q89.41999799999999,229.17999,107.09,233.20999Q124.759998,237.23999,141.5,244.06Q157.61999500000002,250.88,169.70999,261.72998Q181.8,272.57999,181.8,286.22Q181.8,304.19998,168.78,320.32001Q163.199997,327.76000999999997,156.38000499999998,334.89000999999996Q149.559998,342.01999,142.740005,346.97998L137.779999,349.45999L133.440002,346.97998Q124.759998,342.01999,119.490002,333.64999Q114.219997,325.28,109.259998,315.97998L101.200001,298Q97.47999999999999,289.32001,93.450001,280.01999Q89.41999799999999,270.72,81.360001,260.17999L64,242.19998L64,240.34ZM350.44,216.78Q352.92001,220.5,359.43002,224.22Q365.94,227.94,372.76001,231.03998L384.54001,237.23999Q389.5,240.34,389.5,242.19998Q389.5,249.63998,382.06003,253.97998Q375.24002,258.32001,370.90002,262.65999999999997Q365.94,268.85999000000004,361.29001,275.37Q356.64001,281.88,352.92001,289.32001Q347.96002,296.13998000000004,343,302.95999Q338.04001,309.78,331.84003,316.59997999999996L331.84003,318.45999Q338.66,318.45999,343,324.34997999999996Q347.34003,330.23999000000003,347.96002,330.23999000000003L345.48001,340.78L345.48001,405.88L347.96002,402.15997Q348.58002,400.91998,349.20001,399.06Q349.82001,397.20001,351.06003,394.09998L354.78,382.32001Q356.64001,376.12,358.5,371.15997Q360.36002,366.20001,361.60001,364.34L363.77002,356.59Q365.94,348.84,369.04001,338.91998Q372.14001,329,374.62003,320.32001Q377.10001,311.64000999999996,378.34003,308.53998Q378.96002,305.44,379.58002,302.64999Q380.20001,299.85999000000004,381.44,296.75998000000004Q382.68002,290.56,384.23001,285.60001Q385.78,280.63998000000004,387.02002,277.53998L387.02002,275.06Q387.02002,272.57999,389.5,267.62Q390.74002,264.51999,391.05002,262.97Q391.36002,261.41998,391.36002,260.17999L391.36002,257.69998L403.76001,216.78L403.76001,214.29999L361.60001,214.29999Q360.98001,214.29999,356.02002,215.53998Q351.06003,216.78,350.44,216.78ZM403.76001,375.5Q413.68002,388.51999,427.63,404.64001Q441.58002,420.76001,452.12003,431.91998L453.98001,434.39999L455.84003,431.91998L475.06003,388.51999L475.06003,386.03998Q467.62003,391.62,463.90002,397.20001Q459.56003,403.39999,449.64001,403.39999Q439.10001,403.39999,436,397.82001Q432.90002,392.23999,432.90002,381.70001L432.90002,373.64001Q432.28,370.53998,432.28,367.44Q432.28,364.34,432.28,361.23999Q431.66,358.14001,431.66,355.03998Q431.66,351.94,431.66,348.84Q431.04001,345.73999,431.04001,343.88Q431.04001,342.01999,431.04001,340.78Q422.36002,345.73999,415.54001,356.28Q408.72,366.82001,403.76001,375.5ZM442.20001,323.41998Q454.60001,331.47998,464.52002,340.46997Q474.44,349.45999,479.40002,362.47998L481.26001,362.47998L484.36002,356.28Q486.22,350.07999,488.39001,342.32999Q490.56003,334.57999,491.80002,326.51999Q492.42001,322.79999,492.73001,319.70001Q493.04001,316.59997999999996,493.04001,314.12L447.16,314.12Q444.68002,314.12,443.44,316.59997999999996Q442.20001,319.07999,442.20001,320.94L442.20001,323.41998Z" fill="#FFFFFF" fill-opacity="1"/></g></g></g></svg>