<?xml version="1.0" standalone="no"?><!DOCTYPE svg PUBLIC "-//W3C//DTD SVG 1.1//EN" "http://www.w3.org/Graphics/SVG/1.1/DTD/svg11.dtd"><svg t="1739289990318" class="icon" viewBox="0 0 3430 1024" version="1.1" xmlns="http://www.w3.org/2000/svg" p-id="876" xmlns:xlink="http://www.w3.org/1999/xlink" width="669.921875" height="200"><path d="M266.4448 952.064c-28.672 0-55.552-6.144-80.64-18.432-25.088-12.8-48.128-30.976-69.12-54.528-20.48-24.064-38.4-52.48-53.76-85.248-5.12-13.824-10.24-29.696-15.36-47.616-4.608-18.432-8.96-38.144-13.056-59.136-4.096-21.504-7.68-43.52-10.752-66.048-3.072-22.528-5.888-45.056-8.448-67.584-2.048-22.528-3.84-44.544-5.376-66.048-1.024-22.016-1.536-42.24-1.536-60.672 0-102.4 14.592-183.552 43.776-243.456 29.184-60.416 75.264-103.68 138.24-129.792 62.976-26.112 145.152-39.168 246.528-39.168 67.072 0 131.072 5.888 192 17.664 60.928 11.776 115.2 30.976 162.816 57.6 47.616 26.112 85.248 60.16 112.896 102.144 27.648 41.984 41.472 93.44 41.472 154.368 0 45.568-8.448 85.76-25.344 120.576-16.896 34.816-40.96 64-72.192 87.552-30.72 23.04-67.328 40.704-109.824 52.992-42.496 12.288-89.088 19.2-139.776 20.736-32.768 1.024-62.72-0.512-89.856-4.608-27.136-4.096-51.712-6.144-73.728-6.144-16.896 0-27.392 5.888-31.488 17.664-4.096 11.776-6.144 27.904-6.144 48.384v22.272c0 8.192 0.256 16.896 0.768 26.112 0.512 8.704 1.024 17.664 1.536 26.88 0.512 9.216 0.768 17.92 0.768 26.112 0.512 7.68 0.768 14.848 0.768 21.504 0 48.128-10.752 84.48-32.256 109.056-21.504 24.576-55.808 36.864-102.912 36.864z m172.032-509.952c18.944 0 37.888-1.28 56.832-3.84 18.944-2.56 36.608-6.4 52.992-11.52 16.896-5.632 31.744-12.8 44.544-21.504 12.8-8.704 22.784-18.944 29.952-30.72 7.68-12.288 11.52-26.112 11.52-41.472 0-17.408-3.328-32-9.984-43.776a86.9632 86.9632 0 0 0-25.344-30.72c-10.24-8.704-21.76-15.36-34.56-19.968-12.8-5.12-25.856-8.704-39.168-10.752-12.8-2.56-24.576-3.84-35.328-3.84-19.456 0-36.864 1.536-52.224 4.608-14.848 3.072-27.648 7.68-38.4 13.824a63.104 63.104 0 0 0-23.808 25.344c-5.12 10.24-7.68 23.04-7.68 38.4 0 17.408 0.768 33.28 2.304 47.616s3.84 27.136 6.912 38.4c3.584 10.752 8.192 19.968 13.824 27.648 5.632 7.168 12.288 12.8 19.968 16.896 8.192 3.584 17.408 5.376 27.648 5.376zM1982.848 965.12c-32.256 0-60.928-5.12-86.016-15.36-25.088-10.24-47.104-28.16-66.048-53.76-5.12-9.216-9.984-18.944-14.592-29.184-4.096-10.24-8.448-20.736-13.056-31.488-4.096-11.264-8.96-22.528-14.592-33.792-5.632-11.776-12.544-23.552-20.736-35.328-9.728-14.848-20.224-26.368-31.488-34.56-11.264-8.192-25.088-14.08-41.472-17.664-6.656-2.048-16.128-3.584-28.416-4.608-11.776-1.536-24.832-2.56-39.168-3.072-13.824-1.024-27.392-1.536-40.704-1.536-20.48 0-41.216 0.768-62.208 2.304-20.48 1.024-38.656 2.816-54.528 5.376-15.36 2.56-27.904 6.912-37.632 13.056-9.216 6.144-17.408 14.592-24.576 25.344-7.168 10.752-14.08 23.04-20.736 36.864-6.144 13.824-12.8 28.16-19.968 43.008-6.656 14.848-13.824 29.44-21.504 43.776-14.848 22.528-34.048 41.216-57.6 56.064-23.04 14.336-56.576 21.504-100.608 21.504-36.864 0-67.84-5.376-92.928-16.128-24.576-10.752-43.008-28.672-55.296-53.76-12.288-25.6-18.432-59.392-18.432-101.376 0-28.672 3.328-59.392 9.984-92.16 7.168-33.28 16.384-67.328 27.648-102.144 11.776-35.328 24.832-69.888 39.168-103.68 14.848-34.304 29.696-66.56 44.544-96.768 14.848-30.72 28.928-58.112 42.24-82.176 13.824-24.576 25.856-44.544 36.096-59.904 16.896-26.112 37.12-52.736 60.672-79.872 23.552-27.648 50.432-52.736 80.64-75.264 30.72-23.04 65.024-41.472 102.912-55.296 37.888-14.336 79.616-21.504 125.184-21.504 68.608 0 132.864 16.384 192.768 49.152 59.904 32.256 114.176 77.568 162.816 135.936 19.968 22.016 39.168 48.896 57.6 80.64 18.432 31.232 35.584 65.536 51.456 102.912 16.384 36.864 31.232 75.008 44.544 114.432 13.312 39.424 24.832 78.592 34.56 117.504 10.24 38.912 17.92 75.776 23.04 110.592 5.12 34.816 7.68 66.304 7.68 94.464 0 54.272-16.64 92.416-49.92 114.432-32.768 22.016-76.544 33.024-131.328 33.024z m-271.872-462.336c10.24-4.608 16.896-10.752 19.968-18.432 3.584-7.68 5.376-19.2 5.376-34.56 0-11.264-1.792-24.576-5.376-39.936-3.072-15.872-7.68-32-13.824-48.384-5.632-16.896-12.288-32-19.968-45.312-11.264-20.48-24.32-37.12-39.168-49.92-14.848-12.8-30.72-19.2-47.616-19.2-22.016 0-42.752 9.216-62.208 27.648-18.944 17.92-34.816 38.656-47.616 62.208-4.608 8.192-9.472 17.92-14.592 29.184-5.12 11.264-9.728 23.04-13.824 35.328-4.096 11.776-7.68 23.296-10.752 34.56-2.56 10.752-3.84 20.224-3.84 28.416 0 17.408 7.424 29.952 22.272 37.632 14.848 7.168 33.536 10.752 56.064 10.752 28.672 0 54.016-0.256 76.032-0.768 22.016-1.024 41.216-2.304 57.6-3.84 16.896-1.536 30.72-3.328 41.472-5.376z m1054.9248 513.024c-73.728 0-142.08-10.24-205.056-30.72-62.976-20.48-117.76-50.432-164.352-89.856-46.592-39.936-82.944-88.32-109.056-145.152-25.6-56.832-38.4-121.6-38.4-194.304 0-70.656 10.496-134.4 31.488-191.232 21.504-57.344 51.456-107.52 89.856-150.528 38.4-43.008 82.944-79.104 133.632-108.288 51.2-29.184 106.752-50.944 166.656-65.28 59.904-14.848 121.856-22.272 185.856-22.272 78.336 0 151.552 10.752 219.648 32.256 68.608 21.504 129.024 52.992 181.248 94.464 52.224 40.96 92.928 90.624 122.112 148.992 29.696 58.368 44.544 124.416 44.544 198.144 0 81.408-17.664 154.624-52.992 219.648-35.328 64.512-83.968 119.552-145.92 165.12-61.44 45.056-131.584 79.36-210.432 102.912-78.848 24.064-161.792 36.096-248.832 36.096z m65.28-349.44c55.808 0 100.352-8.96 133.632-26.88 33.792-18.432 58.368-42.24 73.728-71.424 15.36-29.184 23.04-59.648 23.04-91.392 0-30.208-5.376-57.6-16.128-82.176-10.752-25.088-25.6-46.336-44.544-63.744-18.944-17.92-41.216-31.744-66.816-41.472-25.088-9.728-52.224-14.592-81.408-14.592-27.648 0-54.272 4.352-79.872 13.056-25.6 8.192-48.384 20.224-68.352 36.096-19.968 15.36-35.84 34.304-47.616 56.832-11.776 22.016-17.664 46.592-17.664 73.728 0 29.696 4.608 57.344 13.824 82.944 9.728 25.6 23.04 48.128 39.936 67.584 17.408 18.944 37.888 34.048 61.44 45.312 23.552 10.752 49.152 16.128 76.8 16.128z" p-id="877"></path></svg>